{"title":"Gogglebox Au - S04E04","uid":15866936,"size":366587548,"categoryP":"video","categoryS":"tv_shows","magnet":"?xt=urn:btih:a32ccace98ad9117d5aaed527eee0c46c3aa6dca&amp;dn=Gogglebox+Au+-+S04E04&amp;tr=udp%3A%2F%2Ftracker.leechers-paradise.org%3A6969&amp;tr=udp%3A%2F%2Fzer0day.ch%3A1337&amp;tr=udp%3A%2F%2Fopen.demonii.com%3A1337&amp;tr=udp%3A%2F%2Ftracker.coppersurfer.tk%3A6969&amp;tr=udp%3A%2F%2Fexodus.desync.com%3A6969","seeders":19,"leechers":4,"uploader":"Bullrout","files":1,"time":1474378185,"description":"Gogglebox Au - S04E04\r\n\r\nAustralia's favourite Goggleboxers reveal what they thought of the week's best TV, including 800 Words, Married at First Sight, the documentary Call Me Dad, The Living Room and Anh's Brush with Fame.\r\n\r\nComplete name : Gogglebox Au - S04E04.mp4\r\nFormat : MPEG-4\r\nFormat profile : Base Media / Version 2\r\nCodec ID : mp42 (mp42/isom/avc1)\r\nFile size : 350 MiB\r\nDuration : 44 min 32 s\r\nOverall bit rate mode : Variable\r\nOverall bit rate : 1 097 kb/s\r\n\r\nVideo\r\nID : 2\r\nFormat : AVC\r\nFormat/Info : Advanced Video Codec\r\nFormat profile :   \r\nFormat settings, CABAC : Yes\r\nFormat settings, ReFrames : 3 frames\r\nCodec ID : avc1\r\nCodec ID/Info : Advanced Video Coding\r\nDuration : 44 min 32 s\r\nBit rate mode : Variable\r\nBit rate : 966 kb/s\r\nMaximum bit rate : 1 000 kb/s\r\nWidth : 720 pixels\r\nHeight : 404 pixels\r\nDisplay aspect ratio : 16:9\r\nOriginal display aspect ratio : 16:9\r\nFrame rate mode : Constant\r\nFrame rate : 25.000 FPS\r\nStandard : PAL\r\nColor space : YUV\r\nChroma subsampling : 4:2:0\r\nBit depth : 8 bits\r\nScan type : Progressive\r\nBits/(Pixel*Frame) : 0.133\r\nStream size : 308 MiB (88%)\r\nWriting library : x264 core 112\r\nColor range : Limited\r\nColor primaries : BT.601 PAL\r\nTransfer characteristics : BT.470 System B, BT.470 System G\r\nMatrix coefficients : BT.601\r\n\r\nAudio\r\nID : 1\r\nFormat : AAC\r\nFormat/Info : Advanced Audio Codec\r\nFormat profile : LC\r\nCodec ID : 40\r\nDuration : 44 min 32 s\r\nBit rate mode : Variable\r\nBit rate : 128 kb/s\r\nMaximum bit rate : 576 kb/s\r\nChannel(s) : 2 channels\r\nChannel positions : Front: L R\r\nSampling rate : 48.0 kHz\r\nFrame rate : 46.875 FPS (1024 spf)\r\nCompression mode : Lossy\r\nStream size : 40.8 MiB (12%)","torrent":{"xt":"urn:btih:a32ccace98ad9117d5aaed527eee0c46c3aa6dca","amp;dn":"Gogglebox+Au+-+S04E04","amp;tr":["udp%3A%2F%2Ftracker.leechers-paradise.org%3A6969","udp%3A%2F%2Fzer0day.ch%3A1337","udp%3A%2F%2Fopen.demonii.com%3A1337","udp%3A%2F%2Ftracker.coppersurfer.tk%3A6969","udp%3A%2F%2Fexodus.desync.com%3A6969"],"infoHash":"a32ccace98ad9117d5aaed527eee0c46c3aa6dca","infoHashBuffer":{"type":"Buffer","data":[163,44,202,206,152,173,145,23,213,170,237,82,126,238,12,70,195,170,109,202]},"announce":[],"urlList":[]}}